<svg width="177" height="170" viewBox="0 0 177 170" fill="none" xmlns="http://www.w3.org/2000/svg">
<path d="M67.0234 46.5V3H101.523C136.323 3 161.023 38.3333 169.023 56L173.023 83L169.023 111.5C142.023 161 119.523 167 111.523 167H93.0234H73.5234C29.5234 158.5 14.6901 124.5 5.02344 99.5L3.02344 83L5.02344 68C15.8234 26 38.8568 14.1667 49.0234 13.5V83C49.0234 105.5 85.5234 129.5 101.523 120.5C123.746 108 125.523 111.5 128.523 83C130.923 60.2 111.523 49.1667 101.523 46.5H67.0234Z" fill="white" stroke="white" stroke-width="6"/>
<circle cx="89.5234" cy="83.5" r="30.5" fill="white"/>
</svg>
